# xmcd
#
# Track frame offsets: 
#        150
#        14881
#        33148
#        45379
#        61376
#        78651
#        90899
#        106488
#        121738
#        140049
#        157382
#        175667
#
# Disc length: 2570 seconds
#
# Revision: 0
# Processed by: cddbd v1.5.2PL0 Copyright (c) Steve Scherf et al.
# Submitted via: ExactAudioCopy v1.0b5
#
DISCID=9a0a080c
DTITLE=Sasha McVeigh - I Stand Alone
DYEAR=2015
DGENRE=Country
TTITLE0=Mr Brown Eyes
TTITLE1=Stupid Girl
TTITLE2=Someone To Break My Heart
TTITLE3=I Stand Alone
TTITLE4=You Only Live Once
TTITLE5=Hot Mess
TTITLE6=Time Of My Life
TTITLE7=Crooked Road
TTITLE8=No Strings Attached Romance
TTITLE9=Two Ships
TTITLE10=Stupid Girl (Acoustic Version)
TTITLE11=You Only Live Once (Work-Tape)
EXTD=
EXTT0=
EXTT1=
EXTT2=
EXTT3=
EXTT4=
EXTT5=
EXTT6=
EXTT7=
EXTT8=
EXTT9=
EXTT10=
EXTT11=
PLAYORDER=
